<svg xmlns="http://www.w3.org/2000/svg" width="1024" height="1024" viewBox="0 0 1024 1024" xmlns:c2pa="http://c2pa.org/manifest"><metadata><c2pa:manifest>AAAWgmp1bWIAAAAeanVtZGMycGEAEQAQgAAAqgA4m3EDYzJwYQAAABZcanVtYgAAAEdqdW1kYzJtYQARABCAAACqADibcQN1cm46YzJwYTo3MTJiZGY1ZS05ZGFlLTRlYWQtYjVmNy05YzhlYTA0NWFmY2EAAAADl2p1bWIAAAApanVtZGMyYXMAEQAQgAAAqgA4m3EDYzJwYS5hc3NlcnRpb25zAAAAALxqdW1iAAAARGp1bWRjYm9yABEAEIAAAKoAOJtxE2MycGEuaW5ncmVkaWVudC52MwAAAAAYYzJzaE6d+S67/bje1SresMt+6+oAAABwY2JvcqNpZGM6Zm9ybWF0bWltYWdlL3N2Zyt4bWxqaW5zdGFuY2VJRHgseG1wOmlpZDpkMTZhOTk2Ny02ODk0LTQ3ODYtYTU2NS0wNjgxNTU3MjFkNTRscmVsYXRpb25zaGlwaHBhcmVudE9mAAAB4mp1bWIAAABBanVtZGNib3IAEQAQgAAAqgA4m3ETYzJwYS5hY3Rpb25zLnYyAAAAABhjMnNoKbxk38P5bZ1Ud8fOvFOv0AAAAZljYm9yomdhY3Rpb25zgqJmYWN0aW9ua2MycGEub3BlbmVkanBhcmFtZXRlcnOha2luZ3JlZGllbnRzgaJjdXJseC1zZWxmI2p1bWJmPWMycGEuYXNzZXJ0aW9ucy9jMnBhLmluZ3JlZGllbnQudjNkaGFzaFgg/1f4CZkmKoRl5BxrWiMTLFGDRDdCWlTEBIpUwJxf5ASkZmFjdGlvbngdY29tLmFudGhyb3BpYy5jbGF1ZGUucHJvdmlkZWRqcGFyYW1ldGVyc6F4H2NvbS5hbnRocm9waWMub3JpZ2luLWNvbmZpZGVuY2VndW5rbm93bmtkZXNjcmlwdGlvbnhmQ2xhdWRlIHByb3ZpZGVkIHRoaXMgZmlsZSBhdCB0aGUgcmVxdWVzdCBvZiBhIHVzZXIgYW5kIG1heSBoYXZlIGNyZWF0ZWQgb3IgbW9kaWZpZWQgdGhlIGZpbGUgY29udGVudHMubXNvZnR3YXJlQWdlbnShZG5hbWVmQ2xhdWRlcmFsbEFjdGlvbnNJbmNsdWRlZPUAAADIanVtYgAAAEBqdW1kY2JvcgARABCAAACqADibcRNjMnBhLmhhc2guZGF0YQAAAAAYYzJzaJPStTys4nMe8B9jW7T0nmEAAACAY2JvcqVjYWxnZnNoYTI1NmNwYWRNAAAAAAAAAAAAAAAAAGRoYXNoWCDefvJyU0SCxZUFnF5ps83HNmAkjuNRDyEIe4hn0eNlnGRuYW1lbmp1bWJmIG1hbmlmZXN0amV4Y2x1c2lvbnOBomVzdGFydBiaZmxlbmd0aBkeBAAAAj5qdW1iAAAAJ2p1bWRjMmNsABEAEIAAAKoAOJtxA2MycGEuY2xhaW0udjIAAAACD2Nib3KlY2FsZ2ZzaGEyNTZpc2lnbmF0dXJleE1zZWxmI2p1bWJmPS9jMnBhL3VybjpjMnBhOjcxMmJkZjVlLTlkYWUtNGVhZC1iNWY3LTljOGVhMDQ1YWZjYS9jMnBhLnNpZ25hdHVyZWppbnN0YW5jZUlEeCx4bXA6aWlkOjQ4MDIwYzFjLTA4MDYtNGM0My1iNDU2LTMwOWRhM2ZjOTY5YnJjcmVhdGVkX2Fzc2VydGlvbnODomN1cmx4LXNlbGYjanVtYmY9YzJwYS5hc3NlcnRpb25zL2MycGEuaW5ncmVkaWVudC52M2RoYXNoWCD/V/gJmSYqhGXkHGtaIxMsUYNEN0JaVMQEilTAnF/kBKJjdXJseCpzZWxmI2p1bWJmPWMycGEuYXNzZXJ0aW9ucy9jMnBhLmFjdGlvbnMudjJkaGFzaFggGyf2U+58yaFbwxmCURAyGaJ2luEkFgJRU22yKtZhYtCiY3VybHgpc2VsZiNqdW1iZj1jMnBhLmFzc2VydGlvbnMvYzJwYS5oYXNoLmRhdGFkaGFzaFgg+MG1Gl6VH/4BMsWs7a9h8LqRHO+Q32ez7Mlh4cRcDpt0Y2xhaW1fZ2VuZXJhdG9yX2luZm+jZG5hbWVvQW50aHJvcGljIEZpbGVzZ3ZlcnNpb25lMS4wLjBrc3BlY1ZlcnNpb25lMi40LjAAABA4anVtYgAAAChqdW1kYzJjcwARABCAAACqADibcQNjMnBhLnNpZ25hdHVyZQAAABAIY2JvctKEWQISogEmGCFZAgowggIGMIIBjaADAgECAhRA5aAK7sI50L64g/oGQgU9Z1UTADAKBggqhkjOPQQDAzBJMRcwFQYDVQQKEw5BbnRocm9waWMsIFBCQzEuMCwGA1UEAxMlQW50aHJvcGljIENvbnRlbnQgQ3JlZGVudGlhbHMgUm9vdCBDQTAeFw0yNjA4MDcxODQzNTZaFw0yODA4MDYxOTQzNTZaMEQxFzAVBgNVBAoTDkFudGhyb3BpYywgUEJDMSkwJwYDVQQDEyBBbnRocm9waWMgQ2xhdWRlIENvbnRlbnQgU2lnbmluZzBZMBMGByqGSM49AgEGCCqGSM49AwEHA0IABJh6CmvLUBgFFNU0vUKlOVtE6djd17L5SuwX0LemFisBM3dkd/3cyjxFA3Qo5S46fX0/ihY0VZ7mfb9KF703t5OjWDBWMA4GA1UdDwEB/wQEAwIHgDAVBgNVHSUEDjAMBgorBgEEAYPoXgIBMAwGA1UdEwEB/wQCMAAwHwYDVR0jBBgwFoAUzlHiBIFOZFsj+OPEz5o+nMHXXMIwCgYIKoZIzj0EAwMDZwAwZAIwMXMdFJ4BetLLVY7ORuE9noqbbAZOZn/aArXyTwFAZfKrPzxF2vPoJNf1+UCdg1XGAjBwX1zd9WGqYkqmL5SFqw1QySjr1zJfpJM9+1rdDwSPLMOPOjKuiXjoU/pUUeG9RwmhY3BhZFkNngAAAAAAAAAAAAAAAAAAAAAAAAAAAAAAAAAAAAAAAAAAAAAAAAAAAAAAAAAAAAAAAAAAAAAAAAAAAAAAAAAAAAAAAAAAAAAAAAAAAAAAAAAAAAAAAAAAAAAAAAAAAAAAAAAAAAAAAAAAAAAAAAAAAAAAAAAAAAAAAAAAAAAAAAAAAAAAAAAAAAAAAAAAAAAAAAAAAAAAAAAAAAAAAAAAAAAAAAAAAAAAAAAAAAAAAAAAAAAAAAAAAAAAAAAAAAAAAAAAAAAAAAAAAAAAAAAAAAAAAAAAAAAAAAAAAAAAAAAAAAAAAAAAAAAAAAAAAAAAAAAAAAAAAAAAAAAAAAAAAAAAAAAAAAAAAAAAAAAAAAAAAAAAAAAAAAAAAAAAAAAAAAAAAAAAAAAAAAAAAAAAAAAAAAAAAAAAAAAAAAAAAAAAAAAAAAAAAAAAAAAAAAAAAAAAAAAAAAAAAAAAAAAAAAAAAAAAAAAAAAAAAAAAAAAAAAAAAAAAAAAAAAAAAAAAAAAAAAAAAAAAAAAAAAAAAAAAAAAAAAAAAAAAAAAAAAAAAAAAAAAAAAAAAAAAAAAAAAAAAAAAAAAAAAAAAAAAAAAAAAAAAAAAAAAAAAAAAAAAAAAAAAAAAAAAAAAAAAAAAAAAAAAAAAAAAAAAAAAAAAAAAAAAAAAAAAAAAAAAAAAAAAAAAAAAAAAAAAAAAAAAAAAAAAAAAAAAAAAAAAAAAAAAAAAAAAAAAAAAAAAAAAAAAAAAAAAAAAAAAAAAAAAAAAAAAAAAAAAAAAAAAAAAAAAAAAAAAAAAAAAAAAAAAAAAAAAAAAAAAAAAAAAAAAAAAAAAAAAAAAAAAAAAAAAAAAAAAAAAAAAAAAAAAAAAAAAAAAAAAAAAAAAAAAAAAAAAAAAAAAAAAAAAAAAAAAAAAAAAAAAAAAAAAAAAAAAAAAAAAAAAAAAAAAAAAAAAAAAAAAAAAAAAAAAAAAAAAAAAAAAAAAAAAAAAAAAAAAAAAAAAAAAAAAAAAAAAAAAAAAAAAAAAAAAAAAAAAAAAAAAAAAAAAAAAAAAAAAAAAAAAAAAAAAAAAAAAAAAAAAAAAAAAAAAAAAAAAAAAAAAAAAAAAAAAAAAAAAAAAAAAAAAAAAAAAAAAAAAAAAAAAAAAAAAAAAAAAAAAAAAAAAAAAAAAAAAAAAAAAAAAAAAAAAAAAAAAAAAAAAAAAAAAAAAAAAAAAAAAAAAAAAAAAAAAAAAAAAAAAAAAAAAAAAAAAAAAAAAAAAAAAAAAAAAAAAAAAAAAAAAAAAAAAAAAAAAAAAAAAAAAAAAAAAAAAAAAAAAAAAAAAAAAAAAAAAAAAAAAAAAAAAAAAAAAAAAAAAAAAAAAAAAAAAAAAAAAAAAAAAAAAAAAAAAAAAAAAAAAAAAAAAAAAAAAAAAAAAAAAAAAAAAAAAAAAAAAAAAAAAAAAAAAAAAAAAAAAAAAAAAAAAAAAAAAAAAAAAAAAAAAAAAAAAAAAAAAAAAAAAAAAAAAAAAAAAAAAAAAAAAAAAAAAAAAAAAAAAAAAAAAAAAAAAAAAAAAAAAAAAAAAAAAAAAAAAAAAAAAAAAAAAAAAAAAAAAAAAAAAAAAAAAAAAAAAAAAAAAAAAAAAAAAAAAAAAAAAAAAAAAAAAAAAAAAAAAAAAAAAAAAAAAAAAAAAAAAAAAAAAAAAAAAAAAAAAAAAAAAAAAAAAAAAAAAAAAAAAAAAAAAAAAAAAAAAAAAAAAAAAAAAAAAAAAAAAAAAAAAAAAAAAAAAAAAAAAAAAAAAAAAAAAAAAAAAAAAAAAAAAAAAAAAAAAAAAAAAAAAAAAAAAAAAAAAAAAAAAAAAAAAAAAAAAAAAAAAAAAAAAAAAAAAAAAAAAAAAAAAAAAAAAAAAAAAAAAAAAAAAAAAAAAAAAAAAAAAAAAAAAAAAAAAAAAAAAAAAAAAAAAAAAAAAAAAAAAAAAAAAAAAAAAAAAAAAAAAAAAAAAAAAAAAAAAAAAAAAAAAAAAAAAAAAAAAAAAAAAAAAAAAAAAAAAAAAAAAAAAAAAAAAAAAAAAAAAAAAAAAAAAAAAAAAAAAAAAAAAAAAAAAAAAAAAAAAAAAAAAAAAAAAAAAAAAAAAAAAAAAAAAAAAAAAAAAAAAAAAAAAAAAAAAAAAAAAAAAAAAAAAAAAAAAAAAAAAAAAAAAAAAAAAAAAAAAAAAAAAAAAAAAAAAAAAAAAAAAAAAAAAAAAAAAAAAAAAAAAAAAAAAAAAAAAAAAAAAAAAAAAAAAAAAAAAAAAAAAAAAAAAAAAAAAAAAAAAAAAAAAAAAAAAAAAAAAAAAAAAAAAAAAAAAAAAAAAAAAAAAAAAAAAAAAAAAAAAAAAAAAAAAAAAAAAAAAAAAAAAAAAAAAAAAAAAAAAAAAAAAAAAAAAAAAAAAAAAAAAAAAAAAAAAAAAAAAAAAAAAAAAAAAAAAAAAAAAAAAAAAAAAAAAAAAAAAAAAAAAAAAAAAAAAAAAAAAAAAAAAAAAAAAAAAAAAAAAAAAAAAAAAAAAAAAAAAAAAAAAAAAAAAAAAAAAAAAAAAAAAAAAAAAAAAAAAAAAAAAAAAAAAAAAAAAAAAAAAAAAAAAAAAAAAAAAAAAAAAAAAAAAAAAAAAAAAAAAAAAAAAAAAAAAAAAAAAAAAAAAAAAAAAAAAAAAAAAAAAAAAAAAAAAAAAAAAAAAAAAAAAAAAAAAAAAAAAAAAAAAAAAAAAAAAAAAAAAAAAAAAAAAAAAAAAAAAAAAAAAAAAAAAAAAAAAAAAAAAAAAAAAAAAAAAAAAAAAAAAAAAAAAAAAAAAAAAAAAAAAAAAAAAAAAAAAAAAAAAAAAAAAAAAAAAAAAAAAAAAAAAAAAAAAAAAAAAAAAAAAAAAAAAAAAAAAAAAAAAAAAAAAAAAAAAAAAAAAAAAAAAAAAAAAAAAAAAAAAAAAAAAAAAAAAAAAAAAAAAAAAAAAAAAAAAAAAAAAAAAAAAAAAAAAAAAAAAAAAAAAAAAAAAAAAAAAAAAAAAAAAAAAAAAAAAAAAAAAAAAAAAAAAAAAAAAAAAAAAAAAAAAAAAAAAAAAAAAAAAAAAAAAAAAAAAAAAAAAAAAAAAAAAAAAAAAAAAAAAAAAAAAAAAAAAAAAAAAAAAAAAAAAAAAAAAAAAAAAAAAAAAAAAAAAAAAAAAAAAAAAAAAAAAAAAAAAAAAAAAAAAAAAAAAAAAAAAAAAAAAAAAAAAAAAAAAAAAAAAAAAAAAAAAAAAAAAAAAAAAAAAAAAAAAAAAAAAAAAAAAAAAAAAAAAAAAAAAAAAAAAAAAAAAAAAAAAAAAAAAAAAAAAAAAAAAAAAAAAAAAAAAAAAAAAAAAAAAAAAAAAAAAAAAAAAAAAAAAAAAAAAAAAAAAAAAAAAAAAAAAAAAAAAAAAAAAAAAAAAAAAAAAAAAAAAAAAAAAAAAAAAAAAAAAAAAAAAAAAAAAAAAAAAAAAAAAAAAAAAAAAAAAAAAAAAAAAAAAAAAAAAAAAAAAAAAAAAAAAAAAAAAAAAAAAAAAAAAAAAAAAAAAAAAAAAAAAAAAAAAAAAAAAAAAAAAAAAAAAAAAAAAAAAAAAAAAAAAAAAAAAAAAAAAAAAAAAAAAAAAAAAAAAAAAAAAAAAAAAAAAAAAAAAAAAAAAAAAAAAAAAAAAAAAAAAAAAAAAAAAAAAAAAAAAAAAAAAAAAAAAAAAAAAAAAAAAAAAAAAAAAAAAAAAAAAAAAAAAAAAAAAAAAAAAAAAAAAAAAAAAAAAAAAAAAAAAAAAAAAAAAAAAAAAAAAAAAAAAAAAAAAAAAAAAAAAAAAAAAAAAAAAAAAAAAAAAAAAAAAAAAAAAAAAAAAAAAAAAAAAAAAAAAAAAAAAAAAAAAAAAAAAAAAAAAAAAAAAAAAAAAAAAAAAAAAAAAAAAAAAAAAAAAAAAAAAAAAAAAAAAAAAAAAAAAAAAAAAAAAAAAAAAAAAAAAAAAAAAAAAAAAAAAAAAAAAAAAAAAAAAAAAAAAAAAAAAAAAAAAAAAAAAAAAAAAAAAAAAAAAAAAAAAAAAAAAAAAAAAAAAAAAAAAAAAAAAAAAAAAAAAAAAAAAAAAAAAAAAAAAAAAAAAAAAAAAAAAAAAAAAAAAAAAAAAAAAAAAAAAAAAAAAAAAAAAAAAAAAAAAAAAAAAAAAAAAAAAAAAAAAAAAAAAAAAAAAAAAAAAAAAAAAAAAAAAAAAAAAAAAAAAAAAAAAAAAAAAAAAAAAAAAAAAAAAAAAAAAAAAAAAAAAAAAAAAAAAAAAAAAAAAAAAAAAAAAAAAAAAAAAAAAAAAAAAAAAAAAAAAAAAAAAAAAAAAAAAAAAAAAAAAAAAAAAAAAAAAAAAAAAAAAAAAAAAAAAAAAAAAAAAAAAAAAAAAAAAAAAAAAAAAAAAAAAAAAAAAAAAAAAAAAAAAAAAAAAAAAAAAAAAAAAAAAAAAAAAAAAAAAAAAAAAAAAAAAAAAAAAAAAAAAAAAAAAAAAAAAAAAAAAAAAAAAAAAAAAAAAAAAAAAAAAAAAAAAAAAAAAAAAAAAAAAAAAAAAAAAAAAAAAAAAAAAAAAAAAAAAAAAAAAAAAAAAAAAAAAAAAAAAAAAAAAAAAAAAAAAAAAAAAAAAAAAAAAAAAAAAAAAAAAAAAAAAAAAAAAPZYQC9AjMyshW7CmM/7fsTHdydftnT8MukFF0mwtrlXlkyWbavR5w8ibyityJLEXwnMFiPIpelPb7sabUE0Hna3JlA=</c2pa:manifest></metadata><defs><filter id="bodyShadow" x="-20%" y="-20%" width="140%" height="140%"><feDropShadow dx="0" dy="12" stdDeviation="10" flood-color="#000" flood-opacity=".35"/></filter><linearGradient id="bg" x1="0" y1="0" x2=".3" y2="1"><stop offset="0" stop-color="#0B2447"/><stop offset=".55" stop-color="#071A33"/><stop offset="1" stop-color="#050F24"/></linearGradient><radialGradient id="glow0" cx="0.12" cy="0.08" r="0.62"><stop offset="0" stop-color="#22D3EE" stop-opacity="0.38"/><stop offset="1" stop-color="#22D3EE" stop-opacity="0"/></radialGradient><radialGradient id="glow1" cx="0.95" cy="0.1" r="0.5"><stop offset="0" stop-color="#14B8A6" stop-opacity="0.28"/><stop offset="1" stop-color="#14B8A6" stop-opacity="0"/></radialGradient><radialGradient id="glow2" cx="0.05" cy="0.98" r="0.6"><stop offset="0" stop-color="#2F5BFF" stop-opacity="0.42"/><stop offset="1" stop-color="#2F5BFF" stop-opacity="0"/></radialGradient><radialGradient id="glow3" cx="0.95" cy="0.95" r="0.62"><stop offset="0" stop-color="#4338CA" stop-opacity="0.45"/><stop offset="1" stop-color="#4338CA" stop-opacity="0"/></radialGradient><mask id="rimMask" maskUnits="userSpaceOnUse" x="0" y="0" width="1024" height="1024"><path d="M383.41,100.00L640.59,100.00C722.19,100.00 763.00,100.00 799.79,112.14L806.92,113.89C854.88,131.34 892.66,169.12 910.11,217.08L911.86,224.21C924.00,261.00 924.00,301.81 924.00,383.41L924.00,640.59C924.00,722.19 924.00,763.00 911.86,799.79L910.11,806.92C892.66,854.88 854.88,892.66 806.92,910.11L799.79,911.86C763.00,924.00 722.19,924.00 640.59,924.00L383.41,924.00C301.81,924.00 261.00,924.00 224.21,911.86L217.08,910.11C169.12,892.66 131.34,854.88 113.89,806.92L112.14,799.79C100.00,763.00 100.00,722.19 100.00,640.59L100.00,383.41C100.00,301.81 100.00,261.00 112.14,224.21L113.89,217.08C131.34,169.12 169.12,131.34 217.08,113.89L224.21,112.14C261.00,100.00 301.81,100.00 383.41,100.00Z" fill="none" stroke="#fff" stroke-width="5"/></mask><clipPath id="clip"><path d="M383.41,100.00L640.59,100.00C722.19,100.00 763.00,100.00 799.79,112.14L806.92,113.89C854.88,131.34 892.66,169.12 910.11,217.08L911.86,224.21C924.00,261.00 924.00,301.81 924.00,383.41L924.00,640.59C924.00,722.19 924.00,763.00 911.86,799.79L910.11,806.92C892.66,854.88 854.88,892.66 806.92,910.11L799.79,911.86C763.00,924.00 722.19,924.00 640.59,924.00L383.41,924.00C301.81,924.00 261.00,924.00 224.21,911.86L217.08,910.11C169.12,892.66 131.34,854.88 113.89,806.92L112.14,799.79C100.00,763.00 100.00,722.19 100.00,640.59L100.00,383.41C100.00,301.81 100.00,261.00 112.14,224.21L113.89,217.08C131.34,169.12 169.12,131.34 217.08,113.89L224.21,112.14C261.00,100.00 301.81,100.00 383.41,100.00Z"/></clipPath><filter id="fieldBlur" filterUnits="userSpaceOnUse" x="-200" y="-200" width="1424" height="1424"><feGaussianBlur stdDeviation="70"/></filter><radialGradient id="depth" cx=".5" cy="1.05" r=".75"><stop offset="0" stop-color="#0A1F5C" stop-opacity=".35"/><stop offset="1" stop-color="#0A1F5C" stop-opacity="0"/></radialGradient><radialGradient id="topLight" cx=".22" cy=".04" r=".7"><stop offset="0" stop-color="#fff" stop-opacity=".30"/><stop offset="1" stop-color="#fff" stop-opacity="0"/></radialGradient><linearGradient id="edge" x1="0" y1="0" x2="0" y2="1"><stop offset="0" stop-color="#fff" stop-opacity=".7"/><stop offset=".3" stop-color="#fff" stop-opacity=".08"/><stop offset="1" stop-color="#fff" stop-opacity=".22"/></linearGradient><linearGradient id="neon" gradientUnits="userSpaceOnUse" x1="760" y1="190" x2="250" y2="800"><stop offset="0" stop-color="#D05BFF"/><stop offset=".38" stop-color="#7B4DFF"/><stop offset=".68" stop-color="#3C63FF"/><stop offset="1" stop-color="#28E0FF"/></linearGradient><filter id="soft" filterUnits="userSpaceOnUse" x="-100" y="-100" width="1224" height="1224"><feGaussianBlur stdDeviation="14.1"/></filter><filter id="softer" filterUnits="userSpaceOnUse" x="-100" y="-100" width="1224" height="1224"><feGaussianBlur stdDeviation="6.2"/></filter><linearGradient id="streak" gradientUnits="userSpaceOnUse" x1="220" y1="200" x2="720" y2="740"><stop offset="0" stop-color="#fff" stop-opacity=".75"/><stop offset=".55" stop-color="#fff" stop-opacity=".25"/><stop offset="1" stop-color="#fff" stop-opacity="0"/></linearGradient><filter id="neonGlow" filterUnits="userSpaceOnUse" x="-100" y="-100" width="1224" height="1224"><feGaussianBlur stdDeviation="38"/></filter><filter id="heroShadow" filterUnits="userSpaceOnUse" x="-100" y="-100" width="1224" height="1224"><feDropShadow dx="0" dy="22" stdDeviation="22" flood-color="#05031A" flood-opacity=".75"/></filter><mask id="shadeBand" maskUnits="userSpaceOnUse" x="0" y="0" width="1024" height="1024"><path d="M557.95,320.03L557.95,635.97A82.03,82.03 0 1 0 639.97,553.95L324.03,553.95A82.03,82.03 0 1 0 406.05,635.97L406.05,320.03A82.03,82.03 0 1 0 324.03,402.05L639.97,402.05A82.03,82.03 0 1 0 557.95,320.03Z" fill="none" stroke="#fff" stroke-width="88"/><path d="M557.95,320.03L557.95,635.97A82.03,82.03 0 1 0 639.97,553.95L324.03,553.95A82.03,82.03 0 1 0 406.05,635.97L406.05,320.03A82.03,82.03 0 1 0 324.03,402.05L639.97,402.05A82.03,82.03 0 1 0 557.95,320.03Z" fill="none" stroke="#000" stroke-width="88" transform="translate(-19.4 -19.4)" filter="url(#soft)"/></mask><mask id="lightBand" maskUnits="userSpaceOnUse" x="0" y="0" width="1024" height="1024"><path d="M557.95,320.03L557.95,635.97A82.03,82.03 0 1 0 639.97,553.95L324.03,553.95A82.03,82.03 0 1 0 406.05,635.97L406.05,320.03A82.03,82.03 0 1 0 324.03,402.05L639.97,402.05A82.03,82.03 0 1 0 557.95,320.03Z" fill="none" stroke="#fff" stroke-width="88"/><path d="M557.95,320.03L557.95,635.97A82.03,82.03 0 1 0 639.97,553.95L324.03,553.95A82.03,82.03 0 1 0 406.05,635.97L406.05,320.03A82.03,82.03 0 1 0 324.03,402.05L639.97,402.05A82.03,82.03 0 1 0 557.95,320.03Z" fill="none" stroke="#000" stroke-width="88" transform="translate(19.4 19.4)" filter="url(#soft)"/></mask><mask id="hero" maskUnits="userSpaceOnUse" x="0" y="0" width="1024" height="1024"><path d="M557.95,320.03L557.95,635.97A82.03,82.03 0 1 0 639.97,553.95L324.03,553.95A82.03,82.03 0 1 0 406.05,635.97L406.05,320.03A82.03,82.03 0 1 0 324.03,402.05L639.97,402.05A82.03,82.03 0 1 0 557.95,320.03Z" fill="none" stroke="#fff" stroke-width="88"/></mask><filter id="shadowBlur" filterUnits="userSpaceOnUse" x="-100" y="-100" width="1224" height="1224"><feGaussianBlur stdDeviation="28"/></filter><mask id="halo" maskUnits="userSpaceOnUse" x="0" y="0" width="1024" height="1024"><path d="M557.95,320.03L557.95,635.97A82.03,82.03 0 1 0 639.97,553.95L324.03,553.95A82.03,82.03 0 1 0 406.05,635.97L406.05,320.03A82.03,82.03 0 1 0 324.03,402.05L639.97,402.05A82.03,82.03 0 1 0 557.95,320.03Z" fill="none" stroke="#fff" stroke-width="140.8" filter="url(#neonGlow)"/></mask><filter id="sweepSmooth" filterUnits="userSpaceOnUse" x="-100" y="-100" width="1224" height="1224"><feGaussianBlur stdDeviation="14"/></filter><filter id="haloBlur" filterUnits="userSpaceOnUse" x="-100" y="-100" width="1224" height="1224"><feGaussianBlur stdDeviation="60"/></filter><filter id="sparkGlow" x="-100%" y="-100%" width="300%" height="300%"><feGaussianBlur in="SourceAlpha" stdDeviation="12" result="b"/><feFlood flood-color="#FFFFFF"/><feComposite in2="b" operator="in" result="g"/><feMerge><feMergeNode in="g"/><feMergeNode in="g"/><feMergeNode in="SourceGraphic"/></feMerge></filter><linearGradient id="keyBody" x1="0" y1="0" x2="0" y2="1"><stop offset="0" stop-color="#1D3B63"/><stop offset="1" stop-color="#0A1A33"/></linearGradient><linearGradient id="keyTop" x1="0" y1="0" x2="0" y2="1"><stop offset="0" stop-color="#1B3659"/><stop offset="1" stop-color="#0F2140"/></linearGradient><linearGradient id="keyRim" x1="0" y1="0" x2="0" y2="1"><stop offset="0" stop-color="#7DE3FF" stop-opacity=".85"/><stop offset="1" stop-color="#2F7BFF" stop-opacity=".35"/></linearGradient><linearGradient id="tabGlow" x1="0" y1="0" x2="1" y2="0"><stop offset="0" stop-color="#2DE2C4"/><stop offset="1" stop-color="#5CC8FF"/></linearGradient><filter id="keyShadow" x="-40%" y="-40%" width="180%" height="190%"><feDropShadow dx="0" dy="30" stdDeviation="28" flood-color="#020A1C" flood-opacity=".75"/></filter><filter id="legendGlow" x="-60%" y="-60%" width="220%" height="220%"><feGaussianBlur in="SourceGraphic" stdDeviation="9" result="g"/><feMerge><feMergeNode in="g"/><feMergeNode in="g"/><feMergeNode in="SourceGraphic"/></feMerge></filter></defs><path d="M383.41,100.00L640.59,100.00C722.19,100.00 763.00,100.00 799.79,112.14L806.92,113.89C854.88,131.34 892.66,169.12 910.11,217.08L911.86,224.21C924.00,261.00 924.00,301.81 924.00,383.41L924.00,640.59C924.00,722.19 924.00,763.00 911.86,799.79L910.11,806.92C892.66,854.88 854.88,892.66 806.92,910.11L799.79,911.86C763.00,924.00 722.19,924.00 640.59,924.00L383.41,924.00C301.81,924.00 261.00,924.00 224.21,911.86L217.08,910.11C169.12,892.66 131.34,854.88 113.89,806.92L112.14,799.79C100.00,763.00 100.00,722.19 100.00,640.59L100.00,383.41C100.00,301.81 100.00,261.00 112.14,224.21L113.89,217.08C131.34,169.12 169.12,131.34 217.08,113.89L224.21,112.14C261.00,100.00 301.81,100.00 383.41,100.00Z" fill="#2F7BFF" filter="url(#bodyShadow)"/><g clip-path="url(#clip)"><g filter="url(#fieldBlur)"><path d="M512,512L505.3,-588.0L557.1,-587.1Z" fill="#20D3ED"/><path d="M512,512L543.7,-587.5L595.4,-584.8Z" fill="#1BD4EC"/><path d="M512,512L582.0,-585.8L633.7,-581.3Z" fill="#17D5EA"/><path d="M512,512L620.3,-582.7L671.7,-576.3Z" fill="#12D6E9"/><path d="M512,512L658.4,-578.2L709.6,-570.1Z" fill="#0CD7E7"/><path d="M512,512L696.4,-572.4L747.3,-562.5Z" fill="#06D8E6"/><path d="M512,512L734.1,-565.3L784.6,-553.7Z" fill="#01D8E4"/><path d="M512,512L771.6,-556.9L821.7,-543.5Z" fill="#00D9E2"/><path d="M512,512L808.7,-547.2L858.3,-532.1Z" fill="#00DAE1"/><path d="M512,512L845.5,-536.2L894.5,-519.3Z" fill="#00DBDF"/><path d="M512,512L881.9,-523.9L930.3,-505.4Z" fill="#00DBDD"/><path d="M512,512L917.8,-510.4L965.5,-490.1Z" fill="#00DCDB"/><path d="M512,512L953.3,-495.6L1000.2,-473.7Z" fill="#00DDD9"/><path d="M512,512L988.2,-479.6L1034.3,-456.1Z" fill="#00DDD7"/><path d="M512,512L1022.5,-462.4L1067.8,-437.3Z" fill="#02DED5"/><path d="M512,512L1056.2,-444.0L1100.6,-417.3Z" fill="#08DED3"/><path d="M512,512L1089.2,-424.4L1132.7,-396.2Z" fill="#0FDFD1"/><path d="M512,512L1121.5,-403.7L1164.0,-374.0Z" fill="#14E0CF"/><path d="M512,512L1153.1,-381.9L1194.5,-350.7Z" fill="#1AE0CD"/><path d="M512,512L1183.9,-358.9L1224.2,-326.3Z" fill="#1FE1CB"/><path d="M512,512L1213.9,-335.0L1253.0,-300.9Z" fill="#24E1C9"/><path d="M512,512L1243.0,-309.9L1280.9,-274.6Z" fill="#28E2C6"/><path d="M512,512L1271.3,-283.9L1307.9,-247.3Z" fill="#2DE2C4"/><path d="M512,512L1298.6,-256.9L1333.9,-219.0Z" fill="#2CE1C3"/><path d="M512,512L1324.9,-229.0L1359.0,-189.9Z" fill="#2CE0C1"/><path d="M512,512L1350.3,-200.2L1382.9,-159.9Z" fill="#2BDFC0"/><path d="M512,512L1374.7,-170.5L1405.9,-129.1Z" fill="#2BDEBF"/><path d="M512,512L1398.0,-140.0L1427.7,-97.5Z" fill="#2ADCBE"/><path d="M512,512L1420.2,-108.7L1448.4,-65.2Z" fill="#29DBBC"/><path d="M512,512L1441.3,-76.6L1468.0,-32.2Z" fill="#29DABB"/><path d="M512,512L1461.3,-43.8L1486.4,1.5Z" fill="#28D9BA"/><path d="M512,512L1480.1,-10.3L1503.6,35.8Z" fill="#27D8B9"/><path d="M512,512L1497.7,23.8L1519.6,70.7Z" fill="#27D7B7"/><path d="M512,512L1514.1,58.5L1534.4,106.2Z" fill="#26D6B6"/><path d="M512,512L1529.4,93.7L1547.9,142.1Z" fill="#26D5B5"/><path d="M512,512L1543.3,129.5L1560.2,178.5Z" fill="#25D4B4"/><path d="M512,512L1556.1,165.7L1571.2,215.3Z" fill="#24D2B2"/><path d="M512,512L1567.5,202.3L1580.9,252.4Z" fill="#24D1B1"/><path d="M512,512L1577.7,239.4L1589.3,289.9Z" fill="#23D0B0"/><path d="M512,512L1586.5,276.7L1596.4,327.6Z" fill="#23CFAF"/><path d="M512,512L1594.1,314.4L1602.2,365.6Z" fill="#22CEAE"/><path d="M512,512L1600.3,352.3L1606.7,403.7Z" fill="#21CDAC"/><path d="M512,512L1605.3,390.3L1609.8,442.0Z" fill="#21CCAB"/><path d="M512,512L1608.8,428.6L1611.5,480.3Z" fill="#20CBAA"/><path d="M512,512L1611.1,466.9L1612.0,518.7Z" fill="#1FCAA9"/><path d="M512,512L1612.0,505.3L1611.1,557.1Z" fill="#19C9AA"/><path d="M512,512L1611.5,543.7L1608.8,595.4Z" fill="#0AC8AD"/><path d="M512,512L1609.8,582.0L1605.3,633.7Z" fill="#00C8B0"/><path d="M512,512L1606.7,620.3L1600.3,671.7Z" fill="#00C7B3"/><path d="M512,512L1602.2,658.4L1594.1,709.6Z" fill="#00C6B6"/><path d="M512,512L1596.4,696.4L1586.5,747.3Z" fill="#00C6B9"/><path d="M512,512L1589.3,734.1L1577.7,784.6Z" fill="#00C5BC"/><path d="M512,512L1580.9,771.6L1567.5,821.7Z" fill="#00C4BF"/><path d="M512,512L1571.2,808.7L1556.1,858.3Z" fill="#00C3C1"/><path d="M512,512L1560.2,845.5L1543.3,894.5Z" fill="#00C3C4"/><path d="M512,512L1547.9,881.9L1529.4,930.3Z" fill="#00C2C7"/><path d="M512,512L1534.4,917.8L1514.1,965.5Z" fill="#00C1C9"/><path d="M512,512L1519.6,953.3L1497.7,1000.2Z" fill="#00C0CC"/><path d="M512,512L1503.6,988.2L1480.1,1034.3Z" fill="#00BFCE"/><path d="M512,512L1486.4,1022.5L1461.3,1067.8Z" fill="#00BED1"/><path d="M512,512L1468.0,1056.2L1441.3,1100.6Z" fill="#00BDD3"/><path d="M512,512L1448.4,1089.2L1420.2,1132.7Z" fill="#00BBD5"/><path d="M512,512L1427.7,1121.5L1398.0,1164.0Z" fill="#00BAD7"/><path d="M512,512L1405.9,1153.1L1374.7,1194.5Z" fill="#00B9D9"/><path d="M512,512L1382.9,1183.9L1350.3,1224.2Z" fill="#00B8DB"/><path d="M512,512L1359.0,1213.9L1324.9,1253.0Z" fill="#00B7DD"/><path d="M512,512L1333.9,1243.0L1298.6,1280.9Z" fill="#0BB5DE"/><path d="M512,512L1307.9,1271.3L1271.3,1307.9Z" fill="#18B4E0"/><path d="M512,512L1280.9,1298.6L1243.0,1333.9Z" fill="#0AB2E2"/><path d="M512,512L1253.0,1324.9L1213.9,1359.0Z" fill="#00B0E3"/><path d="M512,512L1224.2,1350.3L1183.9,1382.9Z" fill="#00AEE5"/><path d="M512,512L1194.5,1374.7L1153.1,1405.9Z" fill="#00ACE6"/><path d="M512,512L1164.0,1398.0L1121.5,1427.7Z" fill="#00AAE8"/><path d="M512,512L1132.7,1420.2L1089.2,1448.4Z" fill="#00A8EA"/><path d="M512,512L1100.6,1441.3L1056.2,1468.0Z" fill="#00A6EB"/><path d="M512,512L1067.8,1461.3L1022.5,1486.4Z" fill="#00A4ED"/><path d="M512,512L1034.3,1480.1L988.2,1503.6Z" fill="#00A1EF"/><path d="M512,512L1000.2,1497.7L953.3,1519.6Z" fill="#009FF0"/><path d="M512,512L965.5,1514.1L917.8,1534.4Z" fill="#009CF2"/><path d="M512,512L930.3,1529.4L881.9,1547.9Z" fill="#009AF3"/><path d="M512,512L894.5,1543.3L845.5,1560.2Z" fill="#0097F4"/><path d="M512,512L858.3,1556.1L808.7,1571.2Z" fill="#0095F6"/><path d="M512,512L821.7,1567.5L771.6,1580.9Z" fill="#0092F7"/><path d="M512,512L784.6,1577.7L734.1,1589.3Z" fill="#008FF8"/><path d="M512,512L747.3,1586.5L696.4,1596.4Z" fill="#008CFA"/><path d="M512,512L709.6,1594.1L658.4,1602.2Z" fill="#0989FB"/><path d="M512,512L671.7,1600.3L620.3,1606.7Z" fill="#1686FC"/><path d="M512,512L633.7,1605.3L582.0,1609.8Z" fill="#1E83FD"/><path d="M512,512L595.4,1608.8L543.7,1611.5Z" fill="#2680FE"/><path d="M512,512L557.1,1611.1L505.3,1612.0Z" fill="#2C7DFF"/><path d="M512,512L518.7,1612.0L466.9,1611.1Z" fill="#2F7AFF"/><path d="M512,512L480.3,1611.5L428.6,1608.8Z" fill="#2F78FF"/><path d="M512,512L442.0,1609.8L390.3,1605.3Z" fill="#3077FF"/><path d="M512,512L403.7,1606.7L352.3,1600.3Z" fill="#3075FF"/><path d="M512,512L365.6,1602.2L314.4,1594.1Z" fill="#3173FF"/><path d="M512,512L327.6,1596.4L276.7,1586.5Z" fill="#3171FF"/><path d="M512,512L289.9,1589.3L239.4,1577.7Z" fill="#326FFF"/><path d="M512,512L252.4,1580.9L202.3,1567.5Z" fill="#326DFF"/><path d="M512,512L215.3,1571.2L165.7,1556.1Z" fill="#336BFF"/><path d="M512,512L178.5,1560.2L129.5,1543.3Z" fill="#3469FF"/><path d="M512,512L142.1,1547.9L93.7,1529.4Z" fill="#3567FF"/><path d="M512,512L106.2,1534.4L58.5,1514.1Z" fill="#3565FF"/><path d="M512,512L70.7,1519.6L23.8,1497.7Z" fill="#3663FF"/><path d="M512,512L35.8,1503.6L-10.3,1480.1Z" fill="#3761FF"/><path d="M512,512L1.5,1486.4L-43.8,1461.3Z" fill="#385FFF"/><path d="M512,512L-32.2,1468.0L-76.6,1441.3Z" fill="#395DFF"/><path d="M512,512L-65.2,1448.4L-108.7,1420.2Z" fill="#3A5BFF"/><path d="M512,512L-97.5,1427.7L-140.0,1398.0Z" fill="#3A59FF"/><path d="M512,512L-129.1,1405.9L-170.5,1374.7Z" fill="#3B57FF"/><path d="M512,512L-159.9,1382.9L-200.2,1350.3Z" fill="#3C54FF"/><path d="M512,512L-189.9,1359.0L-229.0,1324.9Z" fill="#3D52FF"/><path d="M512,512L-219.0,1333.9L-256.9,1298.6Z" fill="#3E4FFF"/><path d="M512,512L-247.3,1307.9L-283.9,1271.3Z" fill="#3F4DFF"/><path d="M512,512L-274.6,1280.9L-309.9,1243.0Z" fill="#3F4FFF"/><path d="M512,512L-300.9,1253.0L-335.0,1213.9Z" fill="#4050FF"/><path d="M512,512L-326.3,1224.2L-358.9,1183.9Z" fill="#4051FF"/><path d="M512,512L-350.7,1194.5L-381.9,1153.1Z" fill="#4153FF"/><path d="M512,512L-374.0,1164.0L-403.7,1121.5Z" fill="#4154FF"/><path d="M512,512L-396.2,1132.7L-424.4,1089.2Z" fill="#4256FF"/><path d="M512,512L-417.3,1100.6L-444.0,1056.2Z" fill="#4257FF"/><path d="M512,512L-437.3,1067.8L-462.4,1022.5Z" fill="#4359FF"/><path d="M512,512L-456.1,1034.3L-479.6,988.2Z" fill="#435AFF"/><path d="M512,512L-473.7,1000.2L-495.6,953.3Z" fill="#445BFF"/><path d="M512,512L-490.1,965.5L-510.4,917.8Z" fill="#455DFF"/><path d="M512,512L-505.4,930.3L-523.9,881.9Z" fill="#455EFF"/><path d="M512,512L-519.3,894.5L-536.2,845.5Z" fill="#465FFF"/><path d="M512,512L-532.1,858.3L-547.2,808.7Z" fill="#4661FF"/><path d="M512,512L-543.5,821.7L-556.9,771.6Z" fill="#4762FF"/><path d="M512,512L-553.7,784.6L-565.3,734.1Z" fill="#4863FF"/><path d="M512,512L-562.5,747.3L-572.4,696.4Z" fill="#4864FF"/><path d="M512,512L-570.1,709.6L-578.2,658.4Z" fill="#4966FF"/><path d="M512,512L-576.3,671.7L-582.7,620.3Z" fill="#4A67FF"/><path d="M512,512L-581.3,633.7L-585.8,582.0Z" fill="#4A68FF"/><path d="M512,512L-584.8,595.4L-587.5,543.7Z" fill="#4B69FF"/><path d="M512,512L-587.1,557.1L-588.0,505.3Z" fill="#4C6AFF"/><path d="M512,512L-588.0,518.7L-587.1,466.9Z" fill="#4A6DFF"/><path d="M512,512L-587.5,480.3L-584.8,428.6Z" fill="#4772FF"/><path d="M512,512L-585.8,442.0L-581.3,390.3Z" fill="#4476FF"/><path d="M512,512L-582.7,403.7L-576.3,352.3Z" fill="#407AFF"/><path d="M512,512L-578.2,365.6L-570.1,314.4Z" fill="#3C7FFF"/><path d="M512,512L-572.4,327.6L-562.5,276.7Z" fill="#3983FF"/><path d="M512,512L-565.3,289.9L-553.7,239.4Z" fill="#3587FF"/><path d="M512,512L-556.9,252.4L-543.5,202.3Z" fill="#328BFF"/><path d="M512,512L-547.2,215.3L-532.1,165.7Z" fill="#2E8FFF"/><path d="M512,512L-536.2,178.5L-519.3,129.5Z" fill="#2B92FF"/><path d="M512,512L-523.9,142.1L-505.4,93.7Z" fill="#2896FF"/><path d="M512,512L-510.4,106.2L-490.1,58.5Z" fill="#259AFF"/><path d="M512,512L-495.6,70.7L-473.7,23.8Z" fill="#239DFF"/><path d="M512,512L-479.6,35.8L-456.1,-10.3Z" fill="#21A1FF"/><path d="M512,512L-462.4,1.5L-437.3,-43.8Z" fill="#21A4FE"/><path d="M512,512L-444.0,-32.2L-417.3,-76.6Z" fill="#21A7FD"/><path d="M512,512L-424.4,-65.2L-396.2,-108.7Z" fill="#22ABFD"/><path d="M512,512L-403.7,-97.5L-374.0,-140.0Z" fill="#24AEFC"/><path d="M512,512L-381.9,-129.1L-350.7,-170.5Z" fill="#27B1FB"/><path d="M512,512L-358.9,-159.9L-326.3,-200.2Z" fill="#2BB4FA"/><path d="M512,512L-335.0,-189.9L-300.9,-229.0Z" fill="#2FB7FA"/><path d="M512,512L-309.9,-219.0L-274.6,-256.9Z" fill="#33BAF9"/><path d="M512,512L-283.9,-247.3L-247.3,-283.9Z" fill="#38BDF8"/><path d="M512,512L-256.9,-274.6L-219.0,-309.9Z" fill="#36BEF8"/><path d="M512,512L-229.0,-300.9L-189.9,-335.0Z" fill="#35BFF7"/><path d="M512,512L-200.2,-326.3L-159.9,-358.9Z" fill="#33C0F7"/><path d="M512,512L-170.5,-350.7L-129.1,-381.9Z" fill="#32C1F7"/><path d="M512,512L-140.0,-374.0L-97.5,-403.7Z" fill="#30C2F6"/><path d="M512,512L-108.7,-396.2L-65.2,-424.4Z" fill="#2EC3F6"/><path d="M512,512L-76.6,-417.3L-32.2,-444.0Z" fill="#2DC4F6"/><path d="M512,512L-43.8,-437.3L1.5,-462.4Z" fill="#2BC5F5"/><path d="M512,512L-10.3,-456.1L35.8,-479.6Z" fill="#2AC6F5"/><path d="M512,512L23.8,-473.7L70.7,-495.6Z" fill="#29C7F5"/><path d="M512,512L58.5,-490.1L106.2,-510.4Z" fill="#28C8F4"/><path d="M512,512L93.7,-505.4L142.1,-523.9Z" fill="#26C9F4"/><path d="M512,512L129.5,-519.3L178.5,-536.2Z" fill="#25CAF3"/><path d="M512,512L165.7,-532.1L215.3,-547.2Z" fill="#24CBF3"/><path d="M512,512L202.3,-543.5L252.4,-556.9Z" fill="#23CCF2"/><path d="M512,512L239.4,-553.7L289.9,-565.3Z" fill="#23CDF2"/><path d="M512,512L276.7,-562.5L327.6,-572.4Z" fill="#22CEF1"/><path d="M512,512L314.4,-570.1L365.6,-578.2Z" fill="#22CFF1"/><path d="M512,512L352.3,-576.3L403.7,-582.7Z" fill="#22D0F0"/><path d="M512,512L390.3,-581.3L442.0,-585.8Z" fill="#21D1EF"/><path d="M512,512L428.6,-584.8L480.3,-587.5Z" fill="#22D2EF"/><path d="M512,512L466.9,-587.1L518.7,-588.0Z" fill="#22D3EE"/></g><rect width="1024" height="1024" fill="url(#depth)"/><rect width="1024" height="1024" fill="url(#topLight)"/></g><path d="M557.95,320.03L557.95,635.97A82.03,82.03 0 1 0 639.97,553.95L324.03,553.95A82.03,82.03 0 1 0 406.05,635.97L406.05,320.03A82.03,82.03 0 1 0 324.03,402.05L639.97,402.05A82.03,82.03 0 1 0 557.95,320.03Z" fill="none" stroke="#062A66" stroke-opacity=".45" stroke-width="88" transform="translate(0 20)" filter="url(#shadowBlur)"/><g mask="url(#hero)"><g filter="url(#sweepSmooth)"><path d="M482,478L476.5,-422.0L511.1,-421.5Z" fill="#D0FDFF"/><path d="M482,478L500.1,-421.8L534.6,-420.5Z" fill="#D0FDFE"/><path d="M482,478L523.6,-421.0L558.1,-418.8Z" fill="#D0FDFE"/><path d="M482,478L547.1,-419.6L581.5,-416.5Z" fill="#D0FDFE"/><path d="M482,478L570.6,-417.6L604.9,-413.6Z" fill="#D0FDFD"/><path d="M482,478L594.0,-415.0L628.2,-410.0Z" fill="#D0FDFD"/><path d="M482,478L617.4,-411.8L651.4,-405.9Z" fill="#D0FEFD"/><path d="M482,478L640.6,-407.9L674.5,-401.2Z" fill="#D0FEFC"/><path d="M482,478L663.7,-403.5L697.4,-395.8Z" fill="#D0FEFC"/><path d="M482,478L686.8,-398.4L720.2,-389.9Z" fill="#D0FEFC"/><path d="M482,478L709.6,-392.7L742.9,-383.4Z" fill="#D0FEFB"/><path d="M482,478L732.3,-386.5L765.3,-376.2Z" fill="#D0FEFB"/><path d="M482,478L754.9,-379.6L787.6,-368.5Z" fill="#D0FEFA"/><path d="M482,478L777.2,-372.2L809.7,-360.2Z" fill="#D0FEFA"/><path d="M482,478L799.4,-364.2L831.5,-351.4Z" fill="#D0FEFA"/><path d="M482,478L821.3,-355.6L853.1,-341.9Z" fill="#D0FEF9"/><path d="M482,478L843.0,-346.4L874.4,-331.9Z" fill="#D0FEF9"/><path d="M482,478L864.5,-336.7L895.5,-321.4Z" fill="#D0FEF8"/><path d="M482,478L885.7,-326.4L916.3,-310.3Z" fill="#D0FEF8"/><path d="M482,478L906.6,-315.5L936.8,-298.7Z" fill="#D0FEF8"/><path d="M482,478L927.2,-304.2L956.9,-286.5Z" fill="#D0FFF7"/><path d="M482,478L947.6,-292.2L976.8,-273.8Z" fill="#D0FFF7"/><path d="M482,478L967.6,-279.8L996.3,-260.6Z" fill="#D0FFF6"/><path d="M482,478L987.2,-266.8L1015.4,-246.9Z" fill="#D0FFF6"/><path d="M482,478L1006.5,-253.3L1034.2,-232.7Z" fill="#D0FFF5"/><path d="M482,478L1025.5,-239.4L1052.7,-218.0Z" fill="#D0FFF5"/><path d="M482,478L1044.1,-224.9L1070.7,-202.8Z" fill="#D1FFF5"/><path d="M482,478L1062.3,-209.9L1088.3,-187.1Z" fill="#D1FFF4"/><path d="M482,478L1080.1,-194.5L1105.5,-171.0Z" fill="#D1FFF4"/><path d="M482,478L1097.5,-178.6L1122.3,-154.5Z" fill="#D1FFF3"/><path d="M482,478L1114.5,-162.3L1138.6,-137.5Z" fill="#D1FFF3"/><path d="M482,478L1131.0,-145.5L1154.5,-120.1Z" fill="#D1FFF3"/><path d="M482,478L1147.1,-128.3L1169.9,-102.3Z" fill="#D1FFF3"/><path d="M482,478L1162.8,-110.7L1184.9,-84.1Z" fill="#D1FFF3"/><path d="M482,478L1178.0,-92.7L1199.4,-65.5Z" fill="#D1FFF3"/><path d="M482,478L1192.7,-74.2L1213.3,-46.5Z" fill="#D1FFF3"/><path d="M482,478L1206.9,-55.4L1226.8,-27.2Z" fill="#D1FFF3"/><path d="M482,478L1220.6,-36.3L1239.8,-7.6Z" fill="#D1FFF2"/><path d="M482,478L1233.8,-16.8L1252.2,12.4Z" fill="#D2FFF2"/><path d="M482,478L1246.5,3.1L1264.2,32.8Z" fill="#D2FFF2"/><path d="M482,478L1258.7,23.2L1275.5,53.4Z" fill="#D2FFF2"/><path d="M482,478L1270.3,43.7L1286.4,74.3Z" fill="#D2FFF2"/><path d="M482,478L1281.4,64.5L1296.7,95.5Z" fill="#D2FFF2"/><path d="M482,478L1291.9,85.6L1306.4,117.0Z" fill="#D2FFF2"/><path d="M482,478L1301.9,106.9L1315.6,138.7Z" fill="#D2FFF2"/><path d="M482,478L1311.4,128.5L1324.2,160.6Z" fill="#D2FFF2"/><path d="M482,478L1320.2,150.3L1332.2,182.8Z" fill="#D2FFF2"/><path d="M482,478L1328.5,172.4L1339.6,205.1Z" fill="#D2FFF2"/><path d="M482,478L1336.2,194.7L1346.5,227.7Z" fill="#D2FFF2"/><path d="M482,478L1343.4,217.1L1352.7,250.4Z" fill="#D2FFF2"/><path d="M482,478L1349.9,239.8L1358.4,273.2Z" fill="#D2FFF2"/><path d="M482,478L1355.8,262.6L1363.5,296.3Z" fill="#D2FFF2"/><path d="M482,478L1361.2,285.5L1367.9,319.4Z" fill="#D2FFF1"/><path d="M482,478L1365.9,308.6L1371.8,342.6Z" fill="#D3FFF1"/><path d="M482,478L1370.0,331.8L1375.0,366.0Z" fill="#D3FFF1"/><path d="M482,478L1373.6,355.1L1377.6,389.4Z" fill="#D3FFF1"/><path d="M482,478L1376.5,378.5L1379.6,412.9Z" fill="#D3FFF1"/><path d="M482,478L1378.8,401.9L1381.0,436.4Z" fill="#D3FFF1"/><path d="M482,478L1380.5,425.4L1381.8,459.9Z" fill="#D3FFF1"/><path d="M482,478L1381.5,448.9L1382.0,483.5Z" fill="#D3FFF1"/><path d="M482,478L1382.0,472.5L1381.5,507.1Z" fill="#D3FFF1"/><path d="M482,478L1381.8,496.1L1380.5,530.6Z" fill="#D3FFF2"/><path d="M482,478L1381.0,519.6L1378.8,554.1Z" fill="#D3FFF2"/><path d="M482,478L1379.6,543.1L1376.5,577.5Z" fill="#D2FFF3"/><path d="M482,478L1377.6,566.6L1373.6,600.9Z" fill="#D2FFF4"/><path d="M482,478L1375.0,590.0L1370.0,624.2Z" fill="#D2FEF4"/><path d="M482,478L1371.8,613.4L1365.9,647.4Z" fill="#D2FEF5"/><path d="M482,478L1367.9,636.6L1361.2,670.5Z" fill="#D2FEF5"/><path d="M482,478L1363.5,659.7L1355.8,693.4Z" fill="#D2FEF6"/><path d="M482,478L1358.4,682.8L1349.9,716.2Z" fill="#D2FEF6"/><path d="M482,478L1352.7,705.6L1343.4,738.9Z" fill="#D2FEF7"/><path d="M482,478L1346.5,728.3L1336.2,761.3Z" fill="#D2FEF7"/><path d="M482,478L1339.6,750.9L1328.5,783.6Z" fill="#D2FEF8"/><path d="M482,478L1332.2,773.2L1320.2,805.7Z" fill="#D2FEF8"/><path d="M482,478L1324.2,795.4L1311.4,827.5Z" fill="#D2FDF9"/><path d="M482,478L1315.6,817.3L1301.9,849.1Z" fill="#D2FDF9"/><path d="M482,478L1306.4,839.0L1291.9,870.4Z" fill="#D2FDFA"/><path d="M482,478L1296.7,860.5L1281.4,891.5Z" fill="#D2FDFA"/><path d="M482,478L1286.4,881.7L1270.3,912.3Z" fill="#D2FDFB"/><path d="M482,478L1275.5,902.6L1258.7,932.8Z" fill="#D2FDFB"/><path d="M482,478L1264.2,923.2L1246.5,952.9Z" fill="#D2FDFB"/><path d="M482,478L1252.2,943.6L1233.8,972.8Z" fill="#D2FCFC"/><path d="M482,478L1239.8,963.6L1220.6,992.3Z" fill="#D2FCFC"/><path d="M482,478L1226.8,983.2L1206.9,1011.4Z" fill="#D2FCFD"/><path d="M482,478L1213.3,1002.5L1192.7,1030.2Z" fill="#D2FCFD"/><path d="M482,478L1199.4,1021.5L1178.0,1048.7Z" fill="#D2FCFD"/><path d="M482,478L1184.9,1040.1L1162.8,1066.7Z" fill="#D2FCFE"/><path d="M482,478L1169.9,1058.3L1147.1,1084.3Z" fill="#D3FBFE"/><path d="M482,478L1154.5,1076.1L1131.0,1101.5Z" fill="#D3FBFE"/><path d="M482,478L1138.6,1093.5L1114.5,1118.3Z" fill="#D3FBFF"/><path d="M482,478L1122.3,1110.5L1097.5,1134.6Z" fill="#D3FBFF"/><path d="M482,478L1105.5,1127.0L1080.1,1150.5Z" fill="#D3FBFF"/><path d="M482,478L1088.3,1143.1L1062.3,1165.9Z" fill="#D3FBFF"/><path d="M482,478L1070.7,1158.8L1044.1,1180.9Z" fill="#D3FAFF"/><path d="M482,478L1052.7,1174.0L1025.5,1195.4Z" fill="#D4FAFF"/><path d="M482,478L1034.2,1188.7L1006.5,1209.3Z" fill="#D4FAFF"/><path d="M482,478L1015.4,1202.9L987.2,1222.8Z" fill="#D4FAFF"/><path d="M482,478L996.3,1216.6L967.6,1235.8Z" fill="#D4FAFF"/><path d="M482,478L976.8,1229.8L947.6,1248.2Z" fill="#D4F9FF"/><path d="M482,478L956.9,1242.5L927.2,1260.2Z" fill="#D4F9FF"/><path d="M482,478L936.8,1254.7L906.6,1271.5Z" fill="#D5F9FF"/><path d="M482,478L916.3,1266.3L885.7,1282.4Z" fill="#D5F9FF"/><path d="M482,478L895.5,1277.4L864.5,1292.7Z" fill="#D5F9FF"/><path d="M482,478L874.4,1287.9L843.0,1302.4Z" fill="#D5F8FF"/><path d="M482,478L853.1,1297.9L821.3,1311.6Z" fill="#D5F8FF"/><path d="M482,478L831.5,1307.4L799.4,1320.2Z" fill="#D5F8FF"/><path d="M482,478L809.7,1316.2L777.2,1328.2Z" fill="#D6F8FF"/><path d="M482,478L787.6,1324.5L754.9,1335.6Z" fill="#D6F7FF"/><path d="M482,478L765.3,1332.2L732.3,1342.5Z" fill="#D6F7FF"/><path d="M482,478L742.9,1339.4L709.6,1348.7Z" fill="#D6F7FF"/><path d="M482,478L720.2,1345.9L686.8,1354.4Z" fill="#D6F7FF"/><path d="M482,478L697.4,1351.8L663.7,1359.5Z" fill="#D6F7FF"/><path d="M482,478L674.5,1357.2L640.6,1363.9Z" fill="#D7F6FF"/><path d="M482,478L651.4,1361.9L617.4,1367.8Z" fill="#D7F6FF"/><path d="M482,478L628.2,1366.0L594.0,1371.0Z" fill="#D7F6FF"/><path d="M482,478L604.9,1369.6L570.6,1373.6Z" fill="#D7F6FF"/><path d="M482,478L581.5,1372.5L547.1,1375.6Z" fill="#D7F6FF"/><path d="M482,478L558.1,1374.8L523.6,1377.0Z" fill="#D8F5FF"/><path d="M482,478L534.6,1376.5L500.1,1377.8Z" fill="#D8F5FF"/><path d="M482,478L511.1,1377.5L476.5,1378.0Z" fill="#D8F5FF"/><path d="M482,478L487.5,1378.0L452.9,1377.5Z" fill="#D8F5FF"/><path d="M482,478L463.9,1377.8L429.4,1376.5Z" fill="#D8F5FF"/><path d="M482,478L440.4,1377.0L405.9,1374.8Z" fill="#D8F5FF"/><path d="M482,478L416.9,1375.6L382.5,1372.5Z" fill="#D8F5FF"/><path d="M482,478L393.4,1373.6L359.1,1369.6Z" fill="#D9F4FF"/><path d="M482,478L370.0,1371.0L335.8,1366.0Z" fill="#D9F4FF"/><path d="M482,478L346.6,1367.8L312.6,1361.9Z" fill="#D9F4FF"/><path d="M482,478L323.4,1363.9L289.5,1357.2Z" fill="#D9F4FF"/><path d="M482,478L300.3,1359.5L266.6,1351.8Z" fill="#D9F4FF"/><path d="M482,478L277.2,1354.4L243.8,1345.9Z" fill="#D9F4FF"/><path d="M482,478L254.4,1348.7L221.1,1339.4Z" fill="#D9F4FF"/><path d="M482,478L231.7,1342.5L198.7,1332.2Z" fill="#D9F3FF"/><path d="M482,478L209.1,1335.6L176.4,1324.5Z" fill="#DAF3FF"/><path d="M482,478L186.8,1328.2L154.3,1316.2Z" fill="#DAF3FF"/><path d="M482,478L164.6,1320.2L132.5,1307.4Z" fill="#DAF3FF"/><path d="M482,478L142.7,1311.6L110.9,1297.9Z" fill="#DAF3FF"/><path d="M482,478L121.0,1302.4L89.6,1287.9Z" fill="#DAF3FF"/><path d="M482,478L99.5,1292.7L68.5,1277.4Z" fill="#DAF3FF"/><path d="M482,478L78.3,1282.4L47.7,1266.3Z" fill="#DAF3FF"/><path d="M482,478L57.4,1271.5L27.2,1254.7Z" fill="#DBF2FF"/><path d="M482,478L36.8,1260.2L7.1,1242.5Z" fill="#DBF2FF"/><path d="M482,478L16.4,1248.2L-12.8,1229.8Z" fill="#DBF2FF"/><path d="M482,478L-3.6,1235.8L-32.3,1216.6Z" fill="#DBF2FF"/><path d="M482,478L-23.2,1222.8L-51.4,1202.9Z" fill="#DBF2FF"/><path d="M482,478L-42.5,1209.3L-70.2,1188.7Z" fill="#DBF2FF"/><path d="M482,478L-61.5,1195.4L-88.7,1174.0Z" fill="#DBF2FF"/><path d="M482,478L-80.1,1180.9L-106.7,1158.8Z" fill="#DCF1FF"/><path d="M482,478L-98.3,1165.9L-124.3,1143.1Z" fill="#DCF1FF"/><path d="M482,478L-116.1,1150.5L-141.5,1127.0Z" fill="#DCF1FF"/><path d="M482,478L-133.5,1134.6L-158.3,1110.5Z" fill="#DCF1FF"/><path d="M482,478L-150.5,1118.3L-174.6,1093.5Z" fill="#DCF1FF"/><path d="M482,478L-167.0,1101.5L-190.5,1076.1Z" fill="#DCF1FF"/><path d="M482,478L-183.1,1084.3L-205.9,1058.3Z" fill="#DCF1FF"/><path d="M482,478L-198.8,1066.7L-220.9,1040.1Z" fill="#DCF1FF"/><path d="M482,478L-214.0,1048.7L-235.4,1021.5Z" fill="#DCF1FF"/><path d="M482,478L-228.7,1030.2L-249.3,1002.5Z" fill="#DCF1FF"/><path d="M482,478L-242.9,1011.4L-262.8,983.2Z" fill="#DCF1FF"/><path d="M482,478L-256.6,992.3L-275.8,963.6Z" fill="#DCF1FF"/><path d="M482,478L-269.8,972.8L-288.2,943.6Z" fill="#DDF1FF"/><path d="M482,478L-282.5,952.9L-300.2,923.2Z" fill="#DDF1FF"/><path d="M482,478L-294.7,932.8L-311.5,902.6Z" fill="#DDF1FF"/><path d="M482,478L-306.3,912.3L-322.4,881.7Z" fill="#DDF1FF"/><path d="M482,478L-317.4,891.5L-332.7,860.5Z" fill="#DDF1FF"/><path d="M482,478L-327.9,870.4L-342.4,839.0Z" fill="#DDF1FF"/><path d="M482,478L-337.9,849.1L-351.6,817.3Z" fill="#DDF1FF"/><path d="M482,478L-347.4,827.5L-360.2,795.4Z" fill="#DDF2FF"/><path d="M482,478L-356.2,805.7L-368.2,773.2Z" fill="#DDF2FF"/><path d="M482,478L-364.5,783.6L-375.6,750.9Z" fill="#DDF2FF"/><path d="M482,478L-372.2,761.3L-382.5,728.3Z" fill="#DDF2FF"/><path d="M482,478L-379.4,738.9L-388.7,705.6Z" fill="#DDF2FF"/><path d="M482,478L-385.9,716.2L-394.4,682.8Z" fill="#DDF2FF"/><path d="M482,478L-391.8,693.4L-399.5,659.7Z" fill="#DDF2FF"/><path d="M482,478L-397.2,670.5L-403.9,636.6Z" fill="#DDF2FF"/><path d="M482,478L-401.9,647.4L-407.8,613.4Z" fill="#DEF2FF"/><path d="M482,478L-406.0,624.2L-411.0,590.0Z" fill="#DEF2FF"/><path d="M482,478L-409.6,600.9L-413.6,566.6Z" fill="#DEF2FF"/><path d="M482,478L-412.5,577.5L-415.6,543.1Z" fill="#DEF2FF"/><path d="M482,478L-414.8,554.1L-417.0,519.6Z" fill="#DEF2FF"/><path d="M482,478L-416.5,530.6L-417.8,496.1Z" fill="#DEF2FF"/><path d="M482,478L-417.5,507.1L-418.0,472.5Z" fill="#DEF2FF"/><path d="M482,478L-418.0,483.5L-417.5,448.9Z" fill="#DEF2FF"/><path d="M482,478L-417.8,459.9L-416.5,425.4Z" fill="#DDF2FF"/><path d="M482,478L-417.0,436.4L-414.8,401.9Z" fill="#DDF3FF"/><path d="M482,478L-415.6,412.9L-412.5,378.5Z" fill="#DDF3FF"/><path d="M482,478L-413.6,389.4L-409.6,355.1Z" fill="#DCF3FF"/><path d="M482,478L-411.0,366.0L-406.0,331.8Z" fill="#DCF3FF"/><path d="M482,478L-407.8,342.6L-401.9,308.6Z" fill="#DCF4FF"/><path d="M482,478L-403.9,319.4L-397.2,285.5Z" fill="#DBF4FF"/><path d="M482,478L-399.5,296.3L-391.8,262.6Z" fill="#DBF4FF"/><path d="M482,478L-394.4,273.2L-385.9,239.8Z" fill="#DBF4FF"/><path d="M482,478L-388.7,250.4L-379.4,217.1Z" fill="#DAF5FF"/><path d="M482,478L-382.5,227.7L-372.2,194.7Z" fill="#DAF5FF"/><path d="M482,478L-375.6,205.1L-364.5,172.4Z" fill="#DAF5FF"/><path d="M482,478L-368.2,182.8L-356.2,150.3Z" fill="#D9F6FF"/><path d="M482,478L-360.2,160.6L-347.4,128.5Z" fill="#D9F6FF"/><path d="M482,478L-351.6,138.7L-337.9,106.9Z" fill="#D9F6FF"/><path d="M482,478L-342.4,117.0L-327.9,85.6Z" fill="#D8F6FF"/><path d="M482,478L-332.7,95.5L-317.4,64.5Z" fill="#D8F7FF"/><path d="M482,478L-322.4,74.3L-306.3,43.7Z" fill="#D8F7FF"/><path d="M482,478L-311.5,53.4L-294.7,23.2Z" fill="#D7F7FF"/><path d="M482,478L-300.2,32.8L-282.5,3.1Z" fill="#D7F7FF"/><path d="M482,478L-288.2,12.4L-269.8,-16.8Z" fill="#D7F8FF"/><path d="M482,478L-275.8,-7.6L-256.6,-36.3Z" fill="#D6F8FF"/><path d="M482,478L-262.8,-27.2L-242.9,-55.4Z" fill="#D6F8FF"/><path d="M482,478L-249.3,-46.5L-228.7,-74.2Z" fill="#D6F9FF"/><path d="M482,478L-235.4,-65.5L-214.0,-92.7Z" fill="#D5F9FF"/><path d="M482,478L-220.9,-84.1L-198.8,-110.7Z" fill="#D5F9FF"/><path d="M482,478L-205.9,-102.3L-183.1,-128.3Z" fill="#D5F9FF"/><path d="M482,478L-190.5,-120.1L-167.0,-145.5Z" fill="#D4FAFF"/><path d="M482,478L-174.6,-137.5L-150.5,-162.3Z" fill="#D4FAFF"/><path d="M482,478L-158.3,-154.5L-133.5,-178.6Z" fill="#D4FAFF"/><path d="M482,478L-141.5,-171.0L-116.1,-194.5Z" fill="#D4FAFF"/><path d="M482,478L-124.3,-187.1L-98.3,-209.9Z" fill="#D4FAFF"/><path d="M482,478L-106.7,-202.8L-80.1,-224.9Z" fill="#D4FAFF"/><path d="M482,478L-88.7,-218.0L-61.5,-239.4Z" fill="#D3FAFF"/><path d="M482,478L-70.2,-232.7L-42.5,-253.3Z" fill="#D3FBFF"/><path d="M482,478L-51.4,-246.9L-23.2,-266.8Z" fill="#D3FBFF"/><path d="M482,478L-32.3,-260.6L-3.6,-279.8Z" fill="#D3FBFF"/><path d="M482,478L-12.8,-273.8L16.4,-292.2Z" fill="#D3FBFF"/><path d="M482,478L7.1,-286.5L36.8,-304.2Z" fill="#D3FBFF"/><path d="M482,478L27.2,-298.7L57.4,-315.5Z" fill="#D3FBFF"/><path d="M482,478L47.7,-310.3L78.3,-326.4Z" fill="#D2FBFF"/><path d="M482,478L68.5,-321.4L99.5,-336.7Z" fill="#D2FBFF"/><path d="M482,478L89.6,-331.9L121.0,-346.4Z" fill="#D2FBFF"/><path d="M482,478L110.9,-341.9L142.7,-355.6Z" fill="#D2FBFF"/><path d="M482,478L132.5,-351.4L164.6,-364.2Z" fill="#D2FCFF"/><path d="M482,478L154.3,-360.2L186.8,-372.2Z" fill="#D2FCFF"/><path d="M482,478L176.4,-368.5L209.1,-379.6Z" fill="#D2FCFF"/><path d="M482,478L198.7,-376.2L231.7,-386.5Z" fill="#D2FCFF"/><path d="M482,478L221.1,-383.4L254.4,-392.7Z" fill="#D1FCFF"/><path d="M482,478L243.8,-389.9L277.2,-398.4Z" fill="#D1FCFF"/><path d="M482,478L266.6,-395.8L300.3,-403.5Z" fill="#D1FCFF"/><path d="M482,478L289.5,-401.2L323.4,-407.9Z" fill="#D1FCFF"/><path d="M482,478L312.6,-405.9L346.6,-411.8Z" fill="#D1FCFF"/><path d="M482,478L335.8,-410.0L370.0,-415.0Z" fill="#D1FCFF"/><path d="M482,478L359.1,-413.6L393.4,-417.6Z" fill="#D1FDFF"/><path d="M482,478L382.5,-416.5L416.9,-419.6Z" fill="#D0FDFF"/><path d="M482,478L405.9,-418.8L440.4,-421.0Z" fill="#D0FDFF"/><path d="M482,478L429.4,-420.5L463.9,-421.8Z" fill="#D0FDFF"/><path d="M482,478L452.9,-421.5L487.5,-422.0Z" fill="#D0FDFF"/></g></g><rect width="1024" height="1024" fill="#1C5FB0" fill-opacity="0.58" mask="url(#shadeBand)"/><rect width="1024" height="1024" fill="#fff" fill-opacity="0.3" mask="url(#lightBand)"/><g mask="url(#hero)"><path d="M557.95,320.03L557.95,635.97A82.03,82.03 0 1 0 639.97,553.95L324.03,553.95A82.03,82.03 0 1 0 406.05,635.97L406.05,320.03A82.03,82.03 0 1 0 324.03,402.05L639.97,402.05A82.03,82.03 0 1 0 557.95,320.03Z" fill="none" stroke="url(#streak)" stroke-width="17.6" transform="translate(-15.0 -15.0)" filter="url(#softer)"/></g><path d="M186,126 C190.004,166.56 197.44,173.996 238,178 C197.44,182.004 190.004,189.44 186,230 C181.996,189.44 174.56,182.004 134,178 C174.56,173.996 181.996,166.56 186,126Z" fill="#fff" filter="url(#sparkGlow)"/><path d="M296,108 C298.156,129.84 302.16,133.844 324,136 C302.16,138.156 298.156,142.16 296,164 C293.844,142.16 289.84,138.156 268,136 C289.84,133.844 293.844,129.84 296,108Z" fill="#fff" fill-opacity=".92" filter="url(#sparkGlow)"/><path d="M806,228 C807.694,245.16 810.84,248.306 828,250 C810.84,251.694 807.694,254.84 806,272 C804.306,254.84 801.16,251.694 784,250 C801.16,248.306 804.306,245.16 806,228Z" fill="#fff" fill-opacity=".7" filter="url(#sparkGlow)"/><g transform="rotate(-10 719.0 721.0)"><path d="M684.12,590.00L753.88,590.00C781.56,590.00 795.39,590.00 807.87,594.12L810.29,594.71C826.56,600.63 839.37,613.44 845.29,629.71L845.88,632.13C850.00,644.61 850.00,658.44 850.00,686.12L850.00,755.88C850.00,783.56 850.00,797.39 845.88,809.87L845.29,812.29C839.37,828.56 826.56,841.37 810.29,847.29L807.87,847.88C795.39,852.00 781.56,852.00 753.88,852.00L684.12,852.00C656.44,852.00 642.61,852.00 630.13,847.88L627.71,847.29C611.44,841.37 598.63,828.56 592.71,812.29L592.12,809.87C588.00,797.39 588.00,783.56 588.00,755.88L588.00,686.12C588.00,658.44 588.00,644.61 592.12,632.13L592.71,629.71C598.63,613.44 611.44,600.63 627.71,594.71L630.13,594.12C642.61,590.00 656.44,590.00 684.12,590.00Z" fill="url(#keyBody)" filter="url(#keyShadow)"/><path d="M684.12,590.00L753.88,590.00C781.56,590.00 795.39,590.00 807.87,594.12L810.29,594.71C826.56,600.63 839.37,613.44 845.29,629.71L845.88,632.13C850.00,644.61 850.00,658.44 850.00,686.12L850.00,755.88C850.00,783.56 850.00,797.39 845.88,809.87L845.29,812.29C839.37,828.56 826.56,841.37 810.29,847.29L807.87,847.88C795.39,852.00 781.56,852.00 753.88,852.00L684.12,852.00C656.44,852.00 642.61,852.00 630.13,847.88L627.71,847.29C611.44,841.37 598.63,828.56 592.71,812.29L592.12,809.87C588.00,797.39 588.00,783.56 588.00,755.88L588.00,686.12C588.00,658.44 588.00,644.61 592.12,632.13L592.71,629.71C598.63,613.44 611.44,600.63 627.71,594.71L630.13,594.12C642.61,590.00 656.44,590.00 684.12,590.00Z" fill="none" stroke="url(#keyRim)" stroke-width="3"/><path d="M685.86,603.10L752.14,603.10C774.28,603.10 785.36,603.10 795.34,606.39L797.27,606.87C810.29,611.60 820.54,621.85 825.27,634.87L825.75,636.80C829.04,646.78 829.04,657.86 829.04,680.00L829.04,730.56C829.04,752.70 829.04,763.78 825.75,773.76L825.27,775.69C820.54,788.71 810.29,798.96 797.27,803.69L795.34,804.17C785.36,807.46 774.28,807.46 752.14,807.46L685.86,807.46C663.72,807.46 652.64,807.46 642.66,804.17L640.73,803.69C627.71,798.96 617.46,788.71 612.73,775.69L612.25,773.76C608.96,763.78 608.96,752.70 608.96,730.56L608.96,680.00C608.96,657.86 608.96,646.78 612.25,636.80L612.73,634.87C617.46,621.85 627.71,611.60 640.73,606.87L642.66,606.39C652.64,603.10 663.72,603.10 685.86,603.10Z" fill="url(#keyTop)"/><path d="M685.86,603.10L752.14,603.10C774.28,603.10 785.36,603.10 795.34,606.39L797.27,606.87C810.29,611.60 820.54,621.85 825.27,634.87L825.75,636.80C829.04,646.78 829.04,657.86 829.04,680.00L829.04,730.56C829.04,752.70 829.04,763.78 825.75,773.76L825.27,775.69C820.54,788.71 810.29,798.96 797.27,803.69L795.34,804.17C785.36,807.46 774.28,807.46 752.14,807.46L685.86,807.46C663.72,807.46 652.64,807.46 642.66,804.17L640.73,803.69C627.71,798.96 617.46,788.71 612.73,775.69L612.25,773.76C608.96,763.78 608.96,752.70 608.96,730.56L608.96,680.00C608.96,657.86 608.96,646.78 612.25,636.80L612.73,634.87C617.46,621.85 627.71,611.60 640.73,606.87L642.66,606.39C652.64,603.10 663.72,603.10 685.86,603.10Z" fill="none" stroke="#fff" stroke-opacity=".14" stroke-width="2.5"/><path d="M668.38,705.28L744.18,705.28M712.75,673.85L744.18,705.28L712.75,736.71M769.62,667.87L769.62,742.69" fill="none" stroke="url(#tabGlow)" stroke-width="18.7" stroke-linecap="round" stroke-linejoin="round" filter="url(#legendGlow)"/></g><path d="M383.41,100.00L640.59,100.00C722.19,100.00 763.00,100.00 799.79,112.14L806.92,113.89C854.88,131.34 892.66,169.12 910.11,217.08L911.86,224.21C924.00,261.00 924.00,301.81 924.00,383.41L924.00,640.59C924.00,722.19 924.00,763.00 911.86,799.79L910.11,806.92C892.66,854.88 854.88,892.66 806.92,910.11L799.79,911.86C763.00,924.00 722.19,924.00 640.59,924.00L383.41,924.00C301.81,924.00 261.00,924.00 224.21,911.86L217.08,910.11C169.12,892.66 131.34,854.88 113.89,806.92L112.14,799.79C100.00,763.00 100.00,722.19 100.00,640.59L100.00,383.41C100.00,301.81 100.00,261.00 112.14,224.21L113.89,217.08C131.34,169.12 169.12,131.34 217.08,113.89L224.21,112.14C261.00,100.00 301.81,100.00 383.41,100.00Z" fill="none" stroke="url(#edge)" stroke-width="3"/></svg>